<svg width="29" height="17" viewBox="0 0 29 17" fill="none" xmlns="http://www.w3.org/2000/svg">
<path fill-rule="evenodd" clip-rule="evenodd" d="M28.5003 4.1132C28.5028 3.70131 28.3135 3.23049 28 3.04675C27.4384 2.71768 26.3876 2.85622 25.7517 2.94094C24.7995 3.0666 23.7536 3.10276 22.836 2.79133C22.158 2.55904 21.4892 2.04294 20.9485 1.50133C20.859 1.41272 20.1393 0.565054 20.1393 0.565054C19.2245 -0.748961 17.7031 0.570714 16.7331 1.09144C16.0696 1.44597 15.2559 1.85555 14.3803 2.23669C14.197 2.10517 13.9837 2.0215 13.7598 1.99325C13.5359 1.965 13.3085 1.99308 13.0982 2.07493C12.8879 2.15679 12.7014 2.28983 12.5555 2.462C12.4096 2.63417 12.309 2.84003 12.2628 3.06091C11.6443 3.2904 11.0541 3.51348 10.4923 3.73014C10.305 3.53525 10.0637 3.40079 9.79936 3.34405C9.53505 3.2873 9.25981 3.31086 9.00899 3.41169C8.75816 3.51252 8.5432 3.68603 8.39171 3.90992C8.24022 4.13382 8.15911 4.39789 8.15879 4.66822C5.92227 5.60972 4.26022 6.46666 3.05092 7.38777C2.02647 8.17045 1.28209 9.02767 0.785277 10.0551C0.296693 11.0685 0.0898343 12.159 0.00686127 13.3331C-0.105742 14.9252 1.19356 16.1408 2.66062 16.1503L25.7108 16.2994C26.43 16.304 27.1216 16.0228 27.6334 15.5175C28.1453 15.0122 28.4354 14.3243 28.4401 13.6051L28.5003 4.1132ZM25.7534 9.51923L25.7778 5.67204C24.5097 5.78701 23.178 5.77195 21.9621 5.35802C20.7123 4.93211 19.6938 4.08219 19.0316 3.42067C18.6241 3.01372 18.5199 3.21038 18.0139 3.48119C17.4359 3.79159 16.7377 4.14625 15.9737 4.49531L16.0658 4.63575C16.165 4.7845 16.2338 4.95139 16.2682 5.12682C16.3026 5.30226 16.302 5.48276 16.2664 5.65796C16.2308 5.83315 16.1609 5.99957 16.0607 6.14765C15.9605 6.29573 15.8321 6.42253 15.6827 6.52077C15.5333 6.61901 15.366 6.68674 15.1904 6.72006C15.0147 6.75339 14.8342 6.75165 14.6593 6.71496C14.4843 6.67826 14.3183 6.60732 14.1709 6.50623C14.0234 6.40514 13.8974 6.27589 13.8001 6.12591L13.4072 5.52789C12.9295 5.70476 12.4723 5.87693 12.0358 6.04439C12.2026 6.35009 12.2454 6.70826 12.1553 7.04466C12.0652 7.38106 11.8492 7.66991 11.5519 7.85133C11.2546 8.03276 10.899 8.09285 10.5586 8.01916C10.2182 7.94546 9.91926 7.74363 9.72365 7.4555L9.46423 7.06144C7.20859 7.99802 5.70961 8.76979 4.69367 9.54331C3.94009 10.1185 3.50476 10.6603 3.22652 11.2343C2.95033 11.8048 2.79025 12.4937 2.71769 13.4381L25.7271 13.5869L25.7359 12.231L18.9565 12.1872C18.5984 12.1825 18.2568 12.0364 18.0061 11.7807C17.7554 11.5251 17.616 11.1806 17.6183 10.8226C17.6206 10.4645 17.7645 10.1219 18.0184 9.86952C18.2724 9.61713 18.6159 9.47545 18.974 9.47539L25.7534 9.51923Z" fill="white"/>
</svg>
