<svg width="99" height="93" viewBox="0 0 99 93" fill="none" xmlns="http://www.w3.org/2000/svg">
<path d="M88.9472 42.1333C87.0107 41.4932 85.4393 36.4986 84.8956 34.0813C84.8401 31.7496 87.5925 29.6712 88.9757 28.9235C94.7772 27.6188 95.2534 34.4064 94.7663 37.9634C93.2886 42.1843 90.2712 42.5021 88.9472 42.1333Z" fill="#EDC6B9"/>
<path d="M89.9363 31.3373C88.843 32.2496 87.1662 34.594 89.2057 36.6726" stroke="#B45C57" stroke-width="0.7"/>
<path d="M85.2272 68.7654C96.4471 61.2153 86 30 87.5 25L51.1671 8.54468C7.89057 11.7804 8.42485 43.4487 14.1016 58.8784C14.1016 72.81 3.08234 70.1136 5.08556 65.1701C-6.93547 70.1136 5.08569 84.0452 13.0997 78.6523C15.9047 88 24.954 87.6405 29.1281 86.2923C40.7486 96.7185 50.3322 85.5433 53.6714 78.6523C55.2743 80.8095 63.3552 80.45 67.1954 80.0006C81.2201 79.641 85.0603 72.3606 85.2272 68.7654Z" fill="#423225"/>
<path d="M71.5478 60.0447H64.4786V64.4383C62.4588 64.4383 58.251 65.6936 56.3996 66.3212C58.0154 69.0829 57.7461 79.8158 57.4094 84.837C52.9659 100.403 51.1818 105.131 50.8452 105.55C48.8254 107.307 46.974 113.605 46.3007 116.534L39.2315 121.241C35.5959 122.496 37.38 123.438 38.7265 123.752C45.1898 126.011 52.5283 123.438 55.3896 121.869C56.1975 120.864 55.7263 118.73 55.3896 117.789C58.2173 112.768 60.944 107.537 61.9539 105.55C63.5697 103.792 65.3202 97.0763 65.9934 93.938L69.0231 94.2518L68.5181 107.119C67.3063 108.876 67 117.789 66.5 121.869L77.1022 124.693C86.3931 125.948 86.6961 123.542 85.6862 122.182C82.4546 120.425 78.2804 118.312 76.5972 117.475C77.4051 114.964 78.617 109.106 79.1219 106.491C81.5457 100.968 82.1516 91.4274 82.1516 87.3476C80.5358 85.0881 79.4586 72.1793 79.1219 66.0074C73.8705 64.501 71.2112 64.3336 70.5379 64.4383L71 62.5L71.5478 60.0447Z" fill="#FEC6B3" stroke="#E7B19F" stroke-width="0.5"/>
<g filter="url(#filter0_d_522_960)">
<path d="M67.3231 61.2633C51.6662 62.7534 40.5891 58.9191 38 56.5C30.2 50.2422 33.4659 38.6469 32.1461 33.1009C35.9055 16.0144 49.9968 9.67067 59.5081 9.48083C67.4777 10.5414 72.0266 14.225 73.3049 15.9343C82.3173 21.8314 85.5 28 86.1989 32.3637C90.5334 37.5078 89.6895 40.4371 89.7908 42.4415C87.8023 57.3846 73.6748 60.8036 67.3231 61.2633Z" fill="#FEC6B3"/>
</g>
<path d="M48.4897 8.49736C43.2897 6.09736 40.6564 11.164 39.9897 13.9974C33.1897 13.124 27.8309 16.6808 26.6642 19.0446C24.2642 24.6446 28.9897 27.3307 30.9897 27.4973C38.1897 26.2973 42.323 19.9973 43.4897 16.9973C47.4897 17.3973 50.1564 13.4973 50.9897 11.4973C55.3897 14.3848 59.1564 10.7004 60.4897 8.49736C62.0897 3.29737 61.6643 -0.455322 57.1643 0.0446777C54.6643 0.54466 49.1643 4.04468 48.4897 8.49736Z" fill="#5FDBD7"/>
<g filter="url(#filter1_i_522_960)">
<ellipse cx="34.315" cy="20.2665" rx="5.5" ry="3" transform="rotate(145.653 34.315 20.2665)" fill="#5FDBD7"/>
</g>
<g filter="url(#filter2_i_522_960)">
<ellipse cx="45.2356" cy="12.51" rx="2.78306" ry="1.51803" transform="rotate(145.653 45.2356 12.51)" fill="#5FDBD7"/>
</g>
<g filter="url(#filter3_i_522_960)">
<ellipse cx="54.4398" cy="7.27055" rx="3.82858" ry="2.08831" transform="rotate(153.341 54.4398 7.27055)" fill="#5FDBD7"/>
</g>
<path d="M64.9999 43.6326L67.2967 42.1271C67.9813 41.6783 68.8857 42.1973 68.8435 43.0149L68.8064 43.7357" stroke="#F58F89"/>
<path d="M51.984 31.3756C52.9999 31 55.5044 28.6904 58.4838 31.9421" stroke="#322B37"/>
<path d="M69.3519 23.6369C69.9689 22.7467 70.6966 19.4184 75.002 20.3744" stroke="#322B37"/>
<ellipse cx="50.5" cy="48.5" rx="2.5" ry="1.5" fill="#F88179"/>
<ellipse cx="86.4715" cy="37.2672" rx="2" ry="1.5" transform="rotate(-28.2061 86.4715 37.2672)" fill="#F88179"/>
<g filter="url(#filter4_d_522_960)">
<path d="M42.3179 75.1175C43.0284 74.1708 52.8612 66.8336 57.7462 66.0447L57.8609 74.7231L48.535 79.0623L53.8641 84.5849C53.8641 84.2693 55.3444 83.6644 56.0845 83.4015C58.5714 82.7703 59.7852 84.9794 60.0813 86.1628C60.0813 88.3718 58.8971 89.45 58.3049 89.713C57.2391 90.6598 56.6766 90.3705 56.5286 90.1075C56.6072 90.1075 56.6866 89.9164 56.7573 89.6564C56.4526 90.0562 55.969 90.356 55.6404 90.502C52.7983 92.0799 51.1995 89.8445 50.7555 88.5296C50.0449 89.1608 49.2752 88.2666 48.9791 87.7407L40.9856 82.2181C38.854 78.7467 40.9856 76.038 42.3179 75.1175Z" fill="#FEC6B3"/>
<path d="M58.3049 89.713C57.2391 90.6598 56.6766 90.3705 56.5286 90.1075C56.7131 90.1075 56.9015 89.0556 56.9727 88.5296C57.328 89.4763 56.2325 90.239 55.6404 90.502C52.7983 92.0799 51.1995 89.8445 50.7555 88.5296C50.0449 89.1608 49.2752 88.2666 48.9791 87.7407L40.9856 82.2181C38.854 78.7467 40.9856 76.038 42.3179 75.1175C43.0284 74.1708 52.8612 66.8336 57.7462 66.0447L57.8609 74.7231L48.535 79.0623L53.8641 84.5849C53.8641 84.2693 55.3444 83.6644 56.0845 83.4015C58.5714 82.7703 59.7852 84.9794 60.0813 86.1628C60.0813 88.3718 58.8971 89.45 58.3049 89.713ZM58.3049 89.713C58.601 89.0556 59.0155 87.504 58.3049 86.5572C58.601 87.0832 59.0155 88.4507 58.3049 89.713Z" stroke="#E7B19F" stroke-width="0.5"/>
</g>
<path d="M93.1411 72.8293C91.6655 71.2047 79.2032 65.9247 74.0813 65.0447L76.5402 71.4754L85.7629 75.1985L80.6904 80.9524C78.108 85.0139 81.459 86.7062 83.4572 87.0447C86.4085 86.7739 86.8389 84.9011 86.6852 83.9985L94.0634 77.2293C96.2768 76.1462 94.3708 73.8447 93.1411 72.8293Z" fill="#FEC6B3" stroke="#E7B19F" stroke-width="0.5"/>
<g filter="url(#filter5_d_522_960)">
<path d="M71.0813 64.5C68.2813 68.9 65.5813 66.3334 64.5813 64.5C62.9813 64.5 59.9146 65.1667 58.5813 65.5C61.7813 68.7 58.5813 73.3334 57.0813 75C57.4813 77 57.248 83 56.5813 86C56.1813 88 50.748 95.5 48.0813 99C48.8813 99.8 71.0813 106.5 86.0813 102C84.8813 99.2 83.9146 95.8334 83.5813 94.5C81.1813 86.9 79.9146 77.3334 79.5813 73.5C78.3813 73.5 78.248 72.3334 78.0813 72C76.4813 69.2 75.748 66 77.0813 65C74.5813 64 73.0813 64.1667 71.0813 64.5Z" fill="#5FDBD7"/>
</g>
<path d="M57.5001 65.5C58.5001 65 61.3001 64 64.5001 64C65.5001 68.5 67.4001 78.8 67.0001 84L63.0001 104.5C58.5001 104.333 48.9001 103.2 46.5001 100C47.8334 98 51.9001 92 57.5001 84C57.5001 82.1667 57.4001 77.9 57.0001 75.5L50.0001 79C50.6667 79.5833 51.6667 80.4833 52.5 81.2874C53.3334 82.0916 54.0001 82.8 54.0001 83C52.3334 83.6667 48.9001 85.9 48.5001 89.5C47.6267 89.1917 46.4365 88.6839 45.1493 88C42.2608 86.4653 38.8836 84.0437 37.5001 81C37.0001 79.6667 37.1001 76.2 41.5001 73C44.8335 70.6667 52.7002 65.9 57.5001 65.5Z" fill="#FEFEFE"/>
<path d="M57.5001 65.5C58.5001 65 61.3001 64 64.5001 64C65.5001 68.5 67.4001 78.8 67.0001 84L63.0001 104.5C58.5001 104.333 48.9001 103.2 46.5001 100C47.8334 98 51.9001 92 57.5001 84C57.5001 82.1667 57.4001 77.9 57.0001 75.5L50.0001 79M50.0001 79C50.6667 79.5833 51.6667 80.4833 52.5 81.2874C53.3334 82.0916 54.0001 82.8 54.0001 83C52.3334 83.6667 48.9001 85.9 48.5001 89.5C45.6668 88.5 39.5001 85.4 37.5001 81C37.0001 79.6667 37.1001 76.2 41.5001 73C44.8335 70.6667 52.7002 65.9 57.5001 65.5M57.5001 65.5C57.0001 66.1667 58 67.5 57.0001 69M50.0001 79C49.5001 78.6667 48.1001 78.1 46.5001 78.5C47.6668 78.5 50.0001 78.6 50.0001 79ZM52.5 81.2874C50.8333 81.6916 46.3493 85.2 45.1493 88" stroke="#81AAD9" stroke-width="0.5"/>
<path d="M57 75.5C57.3333 74.6667 57.9 72.8 57.5 72" stroke="#81AAD9" stroke-width="0.5"/>
<path d="M71 64C72.3333 63.6666 75.7 63.5 78.5 65.5C81 66.1666 87.8 68.5 95 72.5C96 73.5 97.7 76.1 96.5 78.5C95.3145 79.5031 93.3907 81.1148 91.6947 82.5C90.291 83.6465 89.0434 84.6377 88.5 85C88.1667 82.8333 86.3 78.5 81.5 78.5L83.5833 76L84 75.5C84.143 75.3855 84.3136 75.2544 84.5 75.1177L79.5 73C80.8333 82 86.1 101.2 88.5 104C87.8333 105 82.4 106.2 74 105C73.1667 102.5 71.6 94.6 72 83C72 80.5 71.8 73.2 71 64Z" fill="#FEFEFE"/>
<path d="M78.5 65.5C75.7 63.5 72.3333 63.6666 71 64C71.8 73.2 72 80.5 72 83C71.6 94.6 73.1667 102.5 74 105C82.4 106.2 87.8333 105 88.5 104C86.1 101.2 80.8333 82 79.5 73L84.5 75.1177M78.5 65.5C81 66.1666 87.8 68.5 95 72.5C96 73.5 97.7 76.1 96.5 78.5C95.3145 79.5031 93.3907 81.1148 91.6947 82.5M78.5 65.5C78.8333 66 79.3 67.2 78.5 68M91.6947 82.5C90.291 83.6465 89.0434 84.6377 88.5 85C88.1667 82.8333 86.3 78.5 81.5 78.5L83.5833 76L84 75.5C84.143 75.3855 84.3136 75.2544 84.5 75.1177M84.5 75.1177C85.3996 74.458 86.6687 73.6686 87 74C86.434 74.1243 85.1416 74.522 84.5 75.1177ZM83.5833 76C86.352 76.1666 91.8505 77.7 91.6947 82.5" stroke="#81AAD9" stroke-width="0.5"/>
<path d="M79.5 92C80.8333 92.1667 83.8881 92.0522 83.5 90.5C83 88.5 85 97.5 86 98.5C85.3333 100 83 102.2 79 99C79 98.1667 79.1 95.2 79.5 92Z" stroke="#81AAD9" stroke-width="0.5"/>
<path d="M54.5002 88.5C53.6393 90.29 57.3586 90.9275 58.6428 91.3229C57.6937 94.405 56.5669 97.1512 56.2248 97.911C51.2637 99.1866 50.0001 96.9187 50.0001 95C51.3225 94.4987 55.3937 86.6421 54.5002 88.5Z" stroke="#81AAD9" stroke-width="0.5"/>
<path d="M61.5 64.5V73.5L63.5 75.5L61.5 77.5C63.3333 79.1667 66.9 83.2 66.5 86" stroke="#81AAD9" stroke-width="0.5"/>
<path d="M75.031 64L77.031 73L75.031 75L77.031 77C75.1977 78.6667 71.631 82.7 72.031 85.5" stroke="#81AAD9" stroke-width="0.5"/>
<circle cx="64.5" cy="87.5" r="0.5" fill="#81AAD9"/>
<circle cx="63.5" cy="91.5" r="0.5" fill="#81AAD9"/>
<path d="M64.5 63C64 62.8333 63 62.8 63 64C63.1667 66.3333 64.1 71.9 66.5 75.5C66.8333 76.1667 67.6 77.5 68 77.5C69.6667 73.8333 72.9 66 72.5 64C72.3333 63.6667 71.8 63 71 63" stroke="#5FDBD7" stroke-width="0.5"/>
<circle cx="3.5" cy="3.5" r="4" transform="matrix(1 0 0 -1 65 83)" fill="#D9D9D9" stroke="#5FDBD7"/>
<path d="M67.6323 79.9295C67.9485 78.5862 68.7704 76.7056 69.5292 79.9295" stroke="#5FDBD7" stroke-width="0.4"/>
<path d="M67.8138 80.379C67.8138 80.7067 68.1579 80.9184 67.7459 80.9184C67.334 80.9184 67 80.6528 67 80.3251C67 79.9974 67.334 79.7318 67.7459 79.7318C68.1579 79.7318 67.8138 80.0513 67.8138 80.379Z" fill="#5FDBD7"/>
<path d="M69.3476 80.379C69.3476 80.7067 69.0035 80.9184 69.4154 80.9184C69.8274 80.9184 70.1614 80.6528 70.1614 80.3251C70.1614 79.9974 69.8274 79.7318 69.4154 79.7318C69.0035 79.7318 69.3476 80.0513 69.3476 80.379Z" fill="#5FDBD7"/>
<g filter="url(#filter6_d_522_960)">
<path d="M35.2119 54.5043C36.4345 52.8718 34.8672 47.8758 33.9308 45.5819C32.6429 43.6374 29.1964 43.5065 27.6341 43.6841C22.1287 45.9316 25.6198 51.772 28.0536 54.4113C31.6796 57.0289 34.3366 55.564 35.2119 54.5043Z" fill="#FEC6B3"/>
<path d="M28.2262 46.2136C29.6449 46.3368 32.3611 47.3011 31.8768 50.1725" stroke="#B45C57" stroke-width="0.7"/>
</g>
<path fill-rule="evenodd" clip-rule="evenodd" d="M54.6376 37C57.6752 37 60.5 38.3326 60.5 40C60.5 41.6674 59.4474 38.3191 54 39C50 39.5 48.9999 41 48.5 40.5C48.416 40.248 48.4488 39.9823 48.5742 39.7139C48.3716 39.63 48.1884 39.5241 47.9726 39.3965C47.4355 39.0789 47.0085 38.8069 47.2431 38.4102C47.4778 38.0139 47.9211 38.2577 48.458 38.5752C48.6863 38.7102 48.8907 38.858 49.081 39.0312C49.3316 38.7851 49.6477 38.5461 50.0107 38.3232C49.9115 38.2754 49.8136 38.2195 49.705 38.1553C49.3157 37.9251 49.0077 37.726 49.2187 37.3691C49.4297 37.0126 49.7523 37.1869 50.1416 37.417C50.3726 37.5536 50.5673 37.7133 50.7392 37.9287C51.8894 37.3779 53.3168 37 54.6376 37Z" fill="#322B37"/>
<path d="M83.388 30.6849C83.4776 29.7389 83.7004 29.427 84.063 28.9193C84.4257 28.4116 84.7326 28.0093 85.1077 28.2772C85.4828 28.5451 85.2019 28.966 84.8392 29.4737C84.4766 29.9814 84.0613 30.3577 83.388 30.6849Z" fill="#322B37"/>
<path d="M82.388 29.6849C82.4776 28.7389 82.7004 28.427 83.063 27.9193C83.4257 27.4116 83.7326 27.0093 84.1077 27.2772C84.4828 27.5451 84.2019 27.966 83.8392 28.4737C83.4766 28.9814 83.0613 29.3577 82.388 29.6849Z" fill="#322B37"/>
<path fill-rule="evenodd" clip-rule="evenodd" d="M58.4942 48.108C58.8117 47.5941 59.3052 47.2849 60.1649 47.725C60.7162 48.0072 60.2103 48.1036 59.6926 48.2713C60.8743 48.5602 63.3051 49.7748 65.8833 50.0523C69.4413 50.4351 72.5511 49.6206 73.0343 49.6726C72.9321 50.6198 69.1891 51.2703 65.6313 50.8875C62.3634 50.5359 59.3755 49.5673 58.9888 48.6778C58.688 49.1891 59.2098 49.8164 59.1681 49.8866C58.3089 49.4465 58.1768 48.6218 58.4942 48.108Z" fill="#92353D"/>
<ellipse cx="76.609" cy="33.9179" rx="8.17868" ry="8.68603" transform="rotate(19.4999 76.609 33.9179)" fill="#29252C"/>
<ellipse cx="76.8379" cy="34.4379" rx="7.78922" ry="8.27241" transform="rotate(19.4999 76.8379 34.4379)" fill="white"/>
<ellipse cx="75.086" cy="35.2676" rx="6.23137" ry="6.61793" transform="rotate(19.4999 75.086 35.2676)" fill="#29252C"/>
<g filter="url(#filter7_d_522_960)">
<path d="M45.0813 13.5447C47.4146 9.54468 57.5581 2.44468 69.1581 2.04468C73.6581 2.21134 83.3581 4.74468 86.1581 13.5447C87.3248 16.5447 90.2581 20.9447 92.6581 14.5447C95.3247 17.2113 98.4581 23.1447 89.6581 25.5447C86.9914 26.2113 79.1581 25.8447 69.1581 19.0447C65.6582 16.5447 58.0581 12.1447 47.6581 16.5447L46.1582 17.5447C45.3582 27.5447 40.1667 34.1667 37 36C35.8 42 36.6582 44.0447 40.6582 49.5447C46.6582 56.5447 43.3248 61.2113 41.1582 62.5447C36.3582 65.3447 34.8248 62.0447 34.6582 60.0447C37.8582 61.6447 38.9915 59.378 39.1582 58.0447C37.5 56.5 34.8334 51.878 32.5 49.5447C26.5 42.7447 27.0812 31.0447 29.5812 26.5447C36.3812 14.5447 43.0813 12.378 45.0813 13.5447Z" fill="#423225"/>
</g>
<defs>
<filter id="filter0_d_522_960" x="32.1462" y="9.48083" width="57.6504" height="54.1167" filterUnits="userSpaceOnUse" color-interpolation-filters="sRGB">
<feFlood flood-opacity="0" result="BackgroundImageFix"/>
<feColorMatrix in="SourceAlpha" type="matrix" values="0 0 0 0 0 0 0 0 0 0 0 0 0 0 0 0 0 0 127 0" result="hardAlpha"/>
<feOffset dy="2"/>
<feComposite in2="hardAlpha" operator="out"/>
<feColorMatrix type="matrix" values="0 0 0 0 0 0 0 0 0 0 0 0 0 0 0 0 0 0 0.25 0"/>
<feBlend mode="normal" in2="BackgroundImageFix" result="effect1_dropShadow_522_960"/>
<feBlend mode="normal" in="SourceGraphic" in2="effect1_dropShadow_522_960" result="shape"/>
</filter>
<filter id="filter1_i_522_960" x="29.4675" y="16.2959" width="9.69507" height="7.94116" filterUnits="userSpaceOnUse" color-interpolation-filters="sRGB">
<feFlood flood-opacity="0" result="BackgroundImageFix"/>
<feBlend mode="normal" in="SourceGraphic" in2="BackgroundImageFix" result="shape"/>
<feColorMatrix in="SourceAlpha" type="matrix" values="0 0 0 0 0 0 0 0 0 0 0 0 0 0 0 0 0 0 127 0" result="hardAlpha"/>
<feOffset dy="2"/>
<feComposite in2="hardAlpha" operator="arithmetic" k2="-1" k3="1"/>
<feColorMatrix type="matrix" values="0 0 0 0 0 0 0 0 0 0 0 0 0 0 0 0 0 0 0.25 0"/>
<feBlend mode="normal" in2="shape" result="effect1_innerShadow_522_960"/>
</filter>
<filter id="filter2_i_522_960" x="42.7827" y="10.5009" width="4.90576" height="4.01837" filterUnits="userSpaceOnUse" color-interpolation-filters="sRGB">
<feFlood flood-opacity="0" result="BackgroundImageFix"/>
<feBlend mode="normal" in="SourceGraphic" in2="BackgroundImageFix" result="shape"/>
<feColorMatrix in="SourceAlpha" type="matrix" values="0 0 0 0 0 0 0 0 0 0 0 0 0 0 0 0 0 0 127 0" result="hardAlpha"/>
<feOffset dy="2"/>
<feComposite in2="hardAlpha" operator="arithmetic" k2="-1" k3="1"/>
<feColorMatrix type="matrix" values="0 0 0 0 0 0 0 0 0 0 0 0 0 0 0 0 0 0 0.25 0"/>
<feBlend mode="normal" in2="shape" result="effect1_innerShadow_522_960"/>
</filter>
<filter id="filter3_i_522_960" x="50.8914" y="4.73401" width="7.09692" height="5.07306" filterUnits="userSpaceOnUse" color-interpolation-filters="sRGB">
<feFlood flood-opacity="0" result="BackgroundImageFix"/>
<feBlend mode="normal" in="SourceGraphic" in2="BackgroundImageFix" result="shape"/>
<feColorMatrix in="SourceAlpha" type="matrix" values="0 0 0 0 0 0 0 0 0 0 0 0 0 0 0 0 0 0 127 0" result="hardAlpha"/>
<feOffset dy="2"/>
<feComposite in2="hardAlpha" operator="arithmetic" k2="-1" k3="1"/>
<feColorMatrix type="matrix" values="0 0 0 0 0 0 0 0 0 0 0 0 0 0 0 0 0 0 0.25 0"/>
<feBlend mode="normal" in2="shape" result="effect1_innerShadow_522_960"/>
</filter>
<filter id="filter4_d_522_960" x="35.8313" y="65.7517" width="28.5" height="33.543" filterUnits="userSpaceOnUse" color-interpolation-filters="sRGB">
<feFlood flood-opacity="0" result="BackgroundImageFix"/>
<feColorMatrix in="SourceAlpha" type="matrix" values="0 0 0 0 0 0 0 0 0 0 0 0 0 0 0 0 0 0 127 0" result="hardAlpha"/>
<feOffset dy="4"/>
<feGaussianBlur stdDeviation="2"/>
<feComposite in2="hardAlpha" operator="out"/>
<feColorMatrix type="matrix" values="0 0 0 0 0 0 0 0 0 0 0 0 0 0 0 0 0 0 0.25 0"/>
<feBlend mode="normal" in2="BackgroundImageFix" result="effect1_dropShadow_522_960"/>
<feBlend mode="normal" in="SourceGraphic" in2="effect1_dropShadow_522_960" result="shape"/>
</filter>
<filter id="filter5_d_522_960" x="48.0813" y="64.2419" width="38" height="40.3004" filterUnits="userSpaceOnUse" color-interpolation-filters="sRGB">
<feFlood flood-opacity="0" result="BackgroundImageFix"/>
<feColorMatrix in="SourceAlpha" type="matrix" values="0 0 0 0 0 0 0 0 0 0 0 0 0 0 0 0 0 0 127 0" result="hardAlpha"/>
<feOffset dy="1"/>
<feComposite in2="hardAlpha" operator="out"/>
<feColorMatrix type="matrix" values="0 0 0 0 0 0 0 0 0 0 0 0 0 0 0 0 0 0 0.25 0"/>
<feBlend mode="normal" in2="BackgroundImageFix" result="effect1_dropShadow_522_960"/>
<feBlend mode="normal" in="SourceGraphic" in2="effect1_dropShadow_522_960" result="shape"/>
</filter>
<filter id="filter6_d_522_960" x="24.7014" y="43.6265" width="10.9585" height="13.2551" filterUnits="userSpaceOnUse" color-interpolation-filters="sRGB">
<feFlood flood-opacity="0" result="BackgroundImageFix"/>
<feColorMatrix in="SourceAlpha" type="matrix" values="0 0 0 0 0 0 0 0 0 0 0 0 0 0 0 0 0 0 127 0" result="hardAlpha"/>
<feOffset dy="1"/>
<feComposite in2="hardAlpha" operator="out"/>
<feColorMatrix type="matrix" values="0 0 0 0 0 0 0 0 0 0 0 0 0 0 0 0 0 0 0.25 0"/>
<feBlend mode="normal" in2="BackgroundImageFix" result="effect1_dropShadow_522_960"/>
<feBlend mode="normal" in="SourceGraphic" in2="effect1_dropShadow_522_960" result="shape"/>
</filter>
<filter id="filter7_d_522_960" x="27.7913" y="2.04468" width="67.667" height="65.58" filterUnits="userSpaceOnUse" color-interpolation-filters="sRGB">
<feFlood flood-opacity="0" result="BackgroundImageFix"/>
<feColorMatrix in="SourceAlpha" type="matrix" values="0 0 0 0 0 0 0 0 0 0 0 0 0 0 0 0 0 0 127 0" result="hardAlpha"/>
<feOffset dy="4"/>
<feComposite in2="hardAlpha" operator="out"/>
<feColorMatrix type="matrix" values="0 0 0 0 0 0 0 0 0 0 0 0 0 0 0 0 0 0 0.25 0"/>
<feBlend mode="normal" in2="BackgroundImageFix" result="effect1_dropShadow_522_960"/>
<feBlend mode="normal" in="SourceGraphic" in2="effect1_dropShadow_522_960" result="shape"/>
</filter>
</defs>
</svg>
