<svg width="117" height="45" viewBox="0 0 117 45" fill="none" xmlns="http://www.w3.org/2000/svg">
<path d="M29.6785 31.0448C30.5718 33.0743 29.4329 35.47 27.38 36.3085C24.5403 37.4685 21.6174 38.8874 18.9575 39.5347C18.1672 39.7274 17.3599 39.9485 16.542 40.1862C11.1605 41.7506 5.86488 38.5481 4.96469 33.0166C4.56317 30.5494 4.15853 28.1085 3.69452 25.7985C3.02741 22.4758 2.32676 19.1427 1.59258 15.7993C0.795825 12.1709 3.1235 8.5875 6.74885 7.77688C10.1015 7.02723 13.3517 9.52086 13.4453 12.9551C13.5353 15.1767 13.6955 17.4008 13.9258 19.6272C14.1261 21.4961 14.3432 23.362 14.5772 25.2248C15.0142 28.2676 17.8533 30.3735 20.8801 29.8369C21.2452 29.7722 21.6092 29.7068 21.9722 29.6407C23.2661 29.4053 24.5618 29.1801 25.8594 28.965C27.4578 28.7001 29.0258 29.5619 29.6785 31.0448Z" fill="#EB877C"/>
<path d="M90.7321 38.9687C90.316 41.401 87.9756 43.0111 85.5566 42.5236C83.0205 42.0124 80.4926 41.4973 77.9728 40.9781C77.3283 40.8456 76.6829 40.7126 76.0367 40.5788C70.5489 39.4432 67.0992 33.9914 68.4234 28.5459C68.9558 26.3562 69.4918 24.1748 70.0311 22.0017C70.8492 18.7073 71.6413 15.389 72.4075 12.0471C73.239 8.42012 76.8805 6.17234 80.5102 6.9913C83.8668 7.74863 85.7427 11.3989 84.3576 14.5488C83.4882 16.5991 82.6814 18.6816 81.937 20.7963C81.3184 22.5744 80.7165 24.3569 80.1311 26.144C79.2245 29.0865 80.8939 32.2095 83.8642 33.0202C84.2226 33.118 84.5803 33.2148 84.9373 33.3105C85.8425 33.5531 86.7464 33.8008 87.6489 34.0536C89.7871 34.6525 91.1066 36.78 90.7321 38.9687Z" fill="#EB877C"/>
<path fill-rule="evenodd" clip-rule="evenodd" d="M103.923 11.2681C106.333 11.8329 107.967 14.0763 107.766 16.5437L105.941 38.9741C105.761 41.1776 103.921 42.8745 101.711 42.8745C99.1492 42.8743 97.1705 40.6214 97.5007 38.0804L98.407 31.1058C98.5737 29.8237 97.8393 28.5941 96.6314 28.1333C95.7031 27.7794 94.6558 27.945 93.8824 28.5683L90.5816 31.2289C89.4886 32.1097 88.0166 32.3622 86.6923 31.8958C83.9722 30.9375 83.094 27.5247 85.0136 25.3727L96.7118 12.2587C97.9306 10.8925 99.7987 10.3016 101.581 10.7192L103.923 11.2681ZM101.435 19.0736C100.956 18.9043 100.423 18.9502 100.008 19.17C99.8229 18.7382 99.4368 18.3675 98.958 18.1982C98.1104 17.8986 97.2261 18.2814 96.9462 19.0739C96.6047 20.0411 97.2607 21.1644 98.2552 22.8634L98.5342 23.3432L99.0534 23.1456C100.893 22.4488 102.108 21.9869 102.45 21.0202C102.73 20.2275 102.283 19.3732 101.435 19.0736ZM109.849 5.72574C109.982 5.77275 110.052 5.91843 110.005 6.05134C109.986 6.10488 109.949 6.15109 109.901 6.18137C109.468 6.45464 108.873 6.78971 108.116 7.18689C107.346 7.59393 106.513 7.99161 105.619 8.3792C104.954 8.66763 104.339 8.90207 103.774 9.08186C103.457 9.18285 103.115 9.16801 102.801 9.05698L101.55 8.61474C101.393 8.5592 101.31 8.3865 101.365 8.22933C101.389 8.16256 101.435 8.10591 101.496 8.06951C101.937 7.80574 102.444 7.48076 103.019 7.09541C103.642 6.66077 104.253 6.22195 104.853 5.77911C105.001 5.6664 105.143 5.55621 105.28 5.44822C105.987 4.88929 106.93 4.6941 107.78 4.99453L109.849 5.72574Z" fill="#EB877C"/>
<path d="M48.438 4.88354C58.4967 4.88376 66.6499 13.1275 66.6499 23.2976C66.6499 33.4677 58.4967 41.7115 48.438 41.7117C45.6234 41.7164 42.8458 41.0579 40.3267 39.7888C39.9344 39.5907 39.3494 39.572 38.4399 39.7986C37.9806 39.9176 37.5264 40.0558 37.0786 40.2136L36.9175 40.2703C36.5047 40.41 36.0585 40.5613 35.6401 40.6746C32.9766 41.3959 30.5373 38.93 31.2505 36.2351C31.3625 35.8141 31.5117 35.3605 31.6499 34.9451L31.7065 34.782C31.8626 34.3294 32 33.8703 32.1177 33.406C32.34 32.4862 32.3207 31.8944 32.1265 31.4978C30.9086 29.0257 30.2251 26.24 30.2251 23.2976C30.2251 18.414 32.1437 13.7304 35.5591 10.2771C38.9746 6.82379 43.6077 4.88354 48.438 4.88354ZM48.6313 14.9626C46.2162 14.9627 43.8996 15.9434 42.1919 17.6882C40.4845 19.4329 39.525 21.7991 39.5249 24.2664C39.5249 25.753 39.8672 27.1608 40.4761 28.4099C40.5732 28.6103 40.5823 28.9092 40.4712 29.3738C40.4123 29.6085 40.3442 29.8413 40.2661 30.0701L40.2378 30.1521C40.1687 30.3619 40.0936 30.5908 40.0376 30.8035C39.6809 32.1651 40.9011 33.4111 42.2329 33.0466C42.442 32.9894 42.6653 32.9131 42.8716 32.8425L42.9517 32.8142C43.1755 32.7345 43.4027 32.6644 43.6323 32.6042C44.087 32.4898 44.3796 32.4993 44.5757 32.5994C45.8353 33.2406 47.2241 33.5734 48.6313 33.571C53.6608 33.571 57.7378 29.405 57.7378 24.2664C57.7376 19.1279 53.6607 14.9626 48.6313 14.9626Z" fill="#EB877C"/>
<path d="M53.6808 20.9618C53.6808 21.4524 51.4515 22.2155 48.7017 22.2155C45.9519 22.2155 43.7227 21.4524 43.7227 20.9618C43.7227 20.7983 44.5525 21.1253 48.7017 21.1253C52.8509 21.1253 53.6808 20.7983 53.6808 20.9618Z" fill="#EB877C"/>
<path d="M48.6323 21.518C46.5628 21.518 44.8381 21.1729 44.8381 21.1729V25.3138C44.8381 27.4101 46.5369 29.1096 48.6323 29.1096C50.7277 29.1096 52.4265 27.4101 52.4265 25.3138V21.1729C52.4265 21.1729 50.7019 21.518 48.6323 21.518Z" fill="#E55D4E"/>
<path d="M48.7696 27.7482C48.7696 27.8417 48.7429 27.9314 48.6953 27.9976C48.6477 28.0637 48.5831 28.1009 48.5158 28.1009C48.4485 28.1009 48.3839 28.0637 48.3363 27.9976C48.2887 27.9314 48.262 27.8417 48.262 27.7482V22.1051C48.262 22.0116 48.2887 21.9219 48.3363 21.8557C48.3839 21.7896 48.4485 21.7524 48.5158 21.7524C48.5831 21.7524 48.6477 21.7896 48.6953 21.8557C48.7429 21.9219 48.7696 22.0116 48.7696 22.1051V27.7482Z" fill="#FFA3AF"/>
</svg>
